<?xml version="1.0" standalone="yes"?>
<svg xmlns="http://www.w3.org/2000/svg" width="797" height="777">
<path style="fill:#141518; stroke:none;" d="M0 0L0 775L797 775L797 0L0 0z"/>
<path style="fill:#d9d9d9; stroke:none;" d="M21 11L21 24L34 24L34 36L21 36L21 49L34 49L34 61L21 61L21 74L34 74L34 86L21 86L21 99L34 99L34 111L21 111L21 124L34 124L34 136L21 136L21 149L34 149L34 161L21 161L21 174L34 174L34 186L21 186L21 199L34 199L34 211L21 211L21 224L34 224L34 236L21 236L21 249L34 249L34 261L21 261L21 274L34 274L34 286L21 286L21 299L34 299L34 311L21 311L21 324L34 324L34 336L21 336L21 349L34 349L34 361L21 361L21 374L34 374L34 386L21 386L21 399L34 399L34 411L21 411L21 424L34 424L34 436L21 436L21 449L34 449L34 461L21 461L21 474L34 474L34 486L21 486L21 499L34 499L34 511L21 511L21 524L34 524L34 536L21 536L21 549L34 549L34 561L21 561L21 574L34 574L34 586L21 586L21 599L34 599L34 611L21 611L21 624L34 624L34 636L21 636L21 649L34 649L34 661L21 661L21 674L34 674L34 686L21 686L21 699L34 699L34 711L21 711L21 724L34 724L34 736L21 736L21 749L34 749L34 761L46 761L46 749L59 749L59 761L71 761L71 749L84 749L84 761L96 761L96 749L109 749L109 761L121 761L121 749L134 749L134 761L146 761L146 749L159 749L159 761L171 761L171 749L184 749L184 761L196 761L196 749L209 749L209 761L221 761L221 749L234 749L234 761L246 761L246 749L259 749L259 761L271 761L271 749L284 749L284 761L296 761L296 749L309 749L309 761L321 761L321 749L334 749L334 761L346 761L346 749L359 749L359 761L371 761L371 749L384 749L384 761L396 761L396 749L409 749L409 761L421 761L421 749L434 749L434 761L446 761L446 749L459 749L459 761L471 761L471 749L484 749L484 761L496 761L496 749L509 749L509 761L521 761L521 749L534 749L534 761L546 761L546 749L559 749L559 761L571 761L571 749L584 749L584 761L596 761L596 749L609 749L609 761L621 761L621 749L634 749L634 761L646 761L646 749L659 749L659 761L671 761L671 749L684 749L684 761L696 761L696 749L709 749L709 761L721 761L721 749L734 749L734 761L746 761L746 749L759 749L759 761L771 761L771 749L759 749L759 736L771 736L771 724L759 724L759 711L771 711L771 699L759 699L759 686L771 686L771 674L759 674L759 661L771 661L771 649L759 649L759 636L771 636L771 624L759 624L759 611L771 611L771 599L759 599L759 586L771 586L771 573L759 573L759 561L771 561L771 549L759 549L759 536L771 536L771 524L759 524L759 511L771 511L771 499L759 499L759 486L771 486L771 474L759 474L759 461L771 461L771 449L759 449L759 436L771 436L771 424L759 424L759 411L771 411L771 399L759 399L759 386L771 386L771 374L759 374L759 361L771 361L771 349L759 349L759 336L771 336L771 324L759 324L759 311L771 311L771 299L759 299L759 286L771 286L771 274L759 274L759 261L771 261L771 249L759 249L759 236L771 236L771 224L759 224L759 211L771 211L771 198L759 198L759 186L771 186L771 174L759 174L759 161L771 161L771 149L759 149L759 136L771 136L771 124L759 124L759 111L771 111L771 99L759 99L759 86L771 86L771 74L759 74L759 61L771 61L771 49L759 49L759 36L771 36L771 24L759 24L759 11L746 11L746 24L734 24L734 11L721 11L721 24L709 24L709 11L696 11L696 24L684 24L684 11L671 11L671 24L659 24L659 11L646 11L646 24L634 24L634 11L621 11L621 24L609 24L609 11L596 11L596 24L584 24L584 11L571 11L571 24L559 24L559 11L546 11L546 24L534 24L534 11L521 11L521 24L509 24L509 11L496 11L496 24L484 24L484 11L471 11L471 24L459 24L459 11L446 11L446 24L434 24L434 11L421 11L421 24L409 24L409 11L396 11L396 24L384 24L384 11L371 11L371 24L359 24L359 11L346 11L346 24L334 24L334 11L321 11L321 24L309 24L309 11L296 11L296 24L284 24L284 11L271 11L271 24L259 24L259 11L246 11L246 24L234 24L234 11L221 11L221 24L209 24L209 11L196 11L196 24L184 24L184 11L171 11L171 24L159 24L159 11L146 11L146 24L134 24L134 11L121 11L121 24L109 24L109 11L96 11L96 24L84 24L84 11L71 11L71 24L59 24L59 11L46 11L46 24L34 24L34 11L21 11z"/>
<path style="fill:#ffffff; stroke:none;" d="M34 11L34 24L46 24L46 11L34 11M59 11L59 24L71 24L71 11L59 11M84 11L84 24L96 24L96 11L84 11M109 11L109 24L121 24L121 11L109 11M134 11L134 24L146 24L146 11L134 11M159 11L159 24L171 24L171 11L159 11M184 11L184 24L196 24L196 11L184 11M209 11L209 24L221 24L221 11L209 11M234 11L234 24L246 24L246 11L234 11M259 11L259 24L271 24L271 11L259 11M284 11L284 24L296 24L296 11L284 11M309 11L309 24L321 24L321 11L309 11M334 11L334 24L346 24L346 11L334 11M359 11L359 24L371 24L371 11L359 11M384 11L384 24L396 24L396 11L384 11M409 11L409 24L421 24L421 11L409 11M434 11L434 24L446 24L446 11L434 11M459 11L459 24L471 24L471 11L459 11M484 11L484 24L496 24L496 11L484 11M509 11L509 24L521 24L521 11L509 11M534 11L534 24L546 24L546 11L534 11M559 11L559 24L571 24L571 11L559 11M584 11L584 24L596 24L596 11L584 11M609 11L609 24L621 24L621 11L609 11M634 11L634 24L646 24L646 11L634 11M659 11L659 24L671 24L671 11L659 11M684 11L684 24L696 24L696 11L684 11M709 11L709 24L721 24L721 11L709 11M734 11L734 24L746 24L746 11L734 11M759 11L759 24L771 24L771 11L759 11M21 24L21 36L34 36L34 24L21 24M46 24L46 36L34 36L34 49L46 49L46 61L34 61L34 74L46 74L46 86L34 86L34 99L46 99L46 111L34 111L34 124L46 124L46 136L34 136L34 149L46 149L46 161L34 161L34 174L46 174L46 186L34 186L34 199L46 199L46 211L34 211L34 224L46 224L46 236L34 236L34 249L46 249L46 261L34 261L34 274L46 274L46 286L34 286L34 299L46 299L46 311L34 311L34 324L46 324L46 336L34 336L34 349L46 349L46 361L34 361L34 374L46 374L46 386L34 386L34 399L46 399L46 411L34 411L34 424L46 424L46 436L34 436L34 449L46 449L46 461L34 461L34 474L46 474L46 486L34 486L34 499L46 499L46 511L34 511L34 524L46 524L46 536L34 536L34 549L46 549L46 561L34 561L34 574L46 574L46 586L34 586L34 599L46 599L46 611L34 611L34 624L46 624L46 636L34 636L34 649L46 649L46 661L34 661L34 674L46 674L46 686L34 686L34 699L46 699L46 711L34 711L34 724L46 724L46 736L34 736L34 749L46 749L46 736L59 736L59 749L71 749L71 736L84 736L84 749L96 749L96 736L109 736L109 749L121 749L121 736L134 736L134 749L146 749L146 736L159 736L159 749L171 749L171 736L184 736L184 749L196 749L196 736L209 736L209 749L221 749L221 736L234 736L234 749L246 749L246 736L259 736L259 749L271 749L271 736L284 736L284 749L296 749L296 736L309 736L309 749L321 749L321 736L334 736L334 749L346 749L346 736L359 736L359 749L371 749L371 736L384 736L384 749L396 749L396 736L409 736L409 749L421 749L421 736L434 736L434 749L446 749L446 736L459 736L459 749L471 749L471 736L484 736L484 749L496 749L496 736L509 736L509 749L521 749L521 736L534 736L534 749L546 749L546 736L559 736L559 749L571 749L571 736L584 736L584 749L596 749L596 736L609 736L609 749L621 749L621 736L634 736L634 749L646 749L646 736L659 736L659 749L671 749L671 736L684 736L684 749L696 749L696 736L709 736L709 749L721 749L721 736L734 736L734 749L746 749L746 736L759 736L759 724L746 724L746 711L759 711L759 699L746 699L746 686L759 686L759 674L746 674L746 661L759 661L759 649L746 649L746 636L759 636L759 624L746 624L746 611L759 611L759 599L746 599L746 586L759 586L759 573L746 573L746 561L759 561L759 549L746 549L746 536L759 536L759 524L746 524L746 511L759 511L759 499L746 499L746 486L759 486L759 474L746 474L746 461L759 461L759 449L746 449L746 436L759 436L759 424L746 424L746 411L759 411L759 399L746 399L746 386L759 386L759 374L746 374L746 361L759 361L759 349L746 349L746 336L759 336L759 324L746 324L746 311L759 311L759 299L746 299L746 286L759 286L759 274L746 274L746 261L759 261L759 249L746 249L746 236L759 236L759 224L746 224L746 211L759 211L759 198L746 198L746 186L759 186L759 174L746 174L746 161L759 161L759 149L746 149L746 136L759 136L759 124L746 124L746 111L759 111L759 99L746 99L746 86L759 86L759 74L746 74L746 61L759 61L759 49L746 49L746 36L759 36L759 24L746 24L746 36L734 36L734 24L721 24L721 36L709 36L709 24L696 24L696 36L684 36L684 24L671 24L671 36L659 36L659 24L646 24L646 36L634 36L634 24L621 24L621 36L609 36L609 24L596 24L596 36L584 36L584 24L571 24L571 36L559 36L559 24L546 24L546 36L534 36L534 24L521 24L521 36L509 36L509 24L496 24L496 36L484 36L484 24L471 24L471 36L459 36L459 24L446 24L446 36L434 36L434 24L421 24L421 36L409 36L409 24L396 24L396 36L384 36L384 24L371 24L371 36L359 36L359 24L346 24L346 36L334 36L334 24L321 24L321 36L309 36L309 24L296 24L296 36L284 36L284 24L271 24L271 36L259 36L259 24L246 24L246 36L234 36L234 24L221 24L221 36L209 36L209 24L196 24L196 36L184 36L184 24L171 24L171 36L159 36L159 24L146 24L146 36L134 36L134 24L121 24L121 36L109 36L109 24L96 24L96 36L84 36L84 24L71 24L71 36L59 36L59 24L46 24z"/>
<path style="fill:#d9d9d9; stroke:none;" d="M46 36L46 49L59 49L59 61L46 61L46 74L59 74L59 86L46 86L46 99L59 99L59 111L46 111L46 124L59 124L59 136L46 136L46 149L59 149L59 161L46 161L46 174L59 174L59 186L46 186L46 199L59 199L59 211L46 211L46 224L59 224L59 236L46 236L46 249L59 249L59 261L46 261L46 274L59 274L59 286L46 286L46 299L59 299L59 311L46 311L46 324L59 324L59 336L46 336L46 349L59 349L59 361L46 361L46 374L59 374L59 386L46 386L46 399L59 399L59 411L46 411L46 424L59 424L59 436L46 436L46 449L59 449L59 461L46 461L46 474L59 474L59 486L46 486L46 499L59 499L59 511L46 511L46 524L59 524L59 536L46 536L46 549L59 549L59 561L46 561L46 574L59 574L59 586L46 586L46 599L59 599L59 611L46 611L46 624L59 624L59 636L46 636L46 649L59 649L59 661L46 661L46 674L59 674L59 686L46 686L46 699L59 699L59 711L46 711L46 724L59 724L59 736L71 736L71 724L84 724L84 736L96 736L96 724L109 724L109 736L121 736L121 724L134 724L134 736L146 736L146 724L159 724L159 736L171 736L171 724L184 724L184 736L196 736L196 724L209 724L209 736L221 736L221 724L234 724L234 736L246 736L246 724L259 724L259 736L271 736L271 724L284 724L284 736L296 736L296 724L309 724L309 736L321 736L321 724L334 724L334 736L346 736L346 724L359 724L359 736L371 736L371 724L384 724L384 736L396 736L396 724L409 724L409 736L421 736L421 724L434 724L434 736L446 736L446 724L459 724L459 736L471 736L471 724L484 724L484 736L496 736L496 724L484 724L484 711L496 711L496 699L484 699L484 686L496 686L496 674L484 674L484 686L471 686L471 674L459 674L459 686L446 686L446 674L434 674L434 686L421 686L421 674L409 674L409 686L396 686L396 674L384 674L384 686L371 686L371 674L359 674L359 686L346 686L346 674L334 674L334 686L321 686L321 674L309 674L309 686L296 686L296 699L309 699L309 711L296 711L296 724L284 724L284 711L271 711L271 699L259 699L259 686L271 686L271 674L259 674L259 661L246 661L246 649L259 649L259 636L246 636L246 624L234 624L234 611L221 611L221 599L234 599L234 586L221 586L221 573L234 573L234 561L221 561L221 549L234 549L234 536L246 536L246 524L234 524L234 511L221 511L221 524L209 524L209 511L196 511L196 524L184 524L184 511L171 511L171 524L159 524L159 511L146 511L146 499L159 499L159 486L171 486L171 474L184 474L184 461L196 461L196 474L209 474L209 461L221 461L221 474L234 474L234 461L246 461L246 474L259 474L259 461L271 461L271 449L284 449L284 436L271 436L271 424L284 424L284 411L271 411L271 399L259 399L259 386L246 386L246 374L259 374L259 361L271 361L271 374L284 374L284 361L296 361L296 349L284 349L284 336L271 336L271 324L259 324L259 311L246 311L246 299L259 299L259 286L246 286L246 274L259 274L259 261L271 261L271 249L284 249L284 261L296 261L296 249L309 249L309 236L321 236L321 249L334 249L334 236L346 236L346 249L359 249L359 236L371 236L371 224L359 224L359 236L346 236L346 224L334 224L334 236L321 236L321 224L309 224L309 211L296 211L296 199L309 199L309 186L321 186L321 174L334 174L334 161L346 161L346 174L359 174L359 161L371 161L371 149L359 149L359 136L371 136L371 124L384 124L384 136L396 136L396 124L409 124L409 136L421 136L421 149L434 149L434 161L421 161L421 174L434 174L434 161L446 161L446 174L459 174L459 186L471 186L471 199L484 199L484 211L471 211L471 224L459 224L459 236L446 236L446 224L434 224L434 236L421 236L421 249L434 249L434 236L446 236L446 249L459 249L459 236L471 236L471 249L484 249L484 236L496 236L496 249L509 249L509 261L521 261L521 249L534 249L534 261L546 261L546 274L534 274L534 286L546 286L546 299L534 299L534 311L521 311L521 324L534 324L534 336L521 336L521 349L509 349L509 361L496 361L496 374L509 374L509 361L521 361L521 374L534 374L534 386L546 386L546 399L534 399L534 411L521 411L521 424L509 424L509 411L496 411L496 424L509 424L509 436L521 436L521 449L509 449L509 461L521 461L521 474L534 474L534 461L546 461L546 474L559 474L559 461L571 461L571 474L584 474L584 461L596 461L596 474L609 474L609 486L621 486L621 499L634 499L634 511L621 511L621 524L609 524L609 511L596 511L596 524L584 524L584 511L571 511L571 524L559 524L559 511L546 511L546 524L559 524L559 536L571 536L571 549L559 549L559 561L571 561L571 573L559 573L559 586L571 586L571 599L559 599L559 611L546 611L546 624L559 624L559 636L546 636L546 649L534 649L534 661L521 661L521 674L534 674L534 686L521 686L521 699L509 699L509 711L521 711L521 724L509 724L509 736L521 736L521 724L534 724L534 736L546 736L546 724L559 724L559 736L571 736L571 724L584 724L584 736L596 736L596 724L609 724L609 736L621 736L621 724L634 724L634 736L646 736L646 724L659 724L659 736L671 736L671 724L684 724L684 736L696 736L696 724L709 724L709 736L721 736L721 724L734 724L734 736L746 736L746 724L734 724L734 711L746 711L746 699L734 699L734 686L746 686L746 674L734 674L734 661L746 661L746 649L734 649L734 636L746 636L746 624L734 624L734 611L746 611L746 599L734 599L734 586L746 586L746 573L734 573L734 561L746 561L746 549L734 549L734 536L746 536L746 524L734 524L734 511L746 511L746 499L734 499L734 486L746 486L746 474L734 474L734 461L746 461L746 449L734 449L734 436L746 436L746 424L734 424L734 411L746 411L746 399L734 399L734 386L746 386L746 374L734 374L734 361L746 361L746 349L734 349L734 336L746 336L746 324L734 324L734 311L746 311L746 299L734 299L734 286L746 286L746 274L734 274L734 261L746 261L746 249L734 249L734 236L746 236L746 224L734 224L734 211L746 211L746 198L734 198L734 186L746 186L746 174L734 174L734 161L746 161L746 149L734 149L734 136L746 136L746 124L734 124L734 111L746 111L746 99L734 99L734 86L746 86L746 74L734 74L734 61L746 61L746 49L734 49L734 36L721 36L721 49L709 49L709 36L696 36L696 49L684 49L684 36L671 36L671 49L659 49L659 36L646 36L646 49L634 49L634 36L621 36L621 49L609 49L609 36L596 36L596 49L584 49L584 36L571 36L571 49L559 49L559 36L546 36L546 49L534 49L534 36L521 36L521 49L509 49L509 36L496 36L496 49L484 49L484 36L471 36L471 49L459 49L459 36L446 36L446 49L434 49L434 36L421 36L421 49L409 49L409 36L396 36L396 49L384 49L384 36L371 36L371 49L359 49L359 36L346 36L346 49L334 49L334 36L321 36L321 49L309 49L309 36L296 36L296 49L284 49L284 36L271 36L271 49L259 49L259 36L246 36L246 49L234 49L234 36L221 36L221 49L209 49L209 36L196 36L196 49L184 49L184 36L171 36L171 49L159 49L159 36L146 36L146 49L134 49L134 36L121 36L121 49L109 49L109 36L96 36L96 49L84 49L84 36L71 36L71 49L59 49L59 36L46 36z"/>
<path style="fill:#ffffff; stroke:none;" d="M759 36L759 49L771 49L771 36L759 36M21 49L21 61L34 61L34 49L21 49M71 49L71 61L59 61L59 74L71 74L71 86L59 86L59 99L71 99L71 111L59 111L59 124L71 124L71 136L59 136L59 149L71 149L71 161L59 161L59 174L71 174L71 186L59 186L59 199L71 199L71 211L59 211L59 224L71 224L71 236L59 236L59 249L71 249L71 261L59 261L59 274L71 274L71 286L59 286L59 299L71 299L71 311L59 311L59 324L71 324L71 336L59 336L59 349L71 349L71 361L59 361L59 374L71 374L71 386L59 386L59 399L71 399L71 411L59 411L59 424L71 424L71 436L59 436L59 449L71 449L71 461L59 461L59 474L71 474L71 486L59 486L59 499L71 499L71 511L59 511L59 524L71 524L71 536L59 536L59 549L71 549L71 561L59 561L59 574L71 574L71 586L59 586L59 599L71 599L71 611L59 611L59 624L71 624L71 636L59 636L59 649L71 649L71 661L59 661L59 674L71 674L71 686L59 686L59 699L71 699L71 711L59 711L59 724L71 724L71 711L84 711L84 724L96 724L96 711L109 711L109 724L121 724L121 711L134 711L134 724L146 724L146 711L159 711L159 724L171 724L171 711L184 711L184 724L196 724L196 711L209 711L209 724L221 724L221 711L234 711L234 724L246 724L246 711L259 711L259 724L271 724L271 711L259 711L259 699L246 699L246 686L259 686L259 674L246 674L246 661L234 661L234 649L246 649L246 636L234 636L234 624L221 624L221 611L209 611L209 599L221 599L221 586L209 586L209 573L221 573L221 561L209 561L209 549L221 549L221 536L234 536L234 524L221 524L221 536L209 536L209 524L196 524L196 536L184 536L184 524L171 524L171 536L159 536L159 524L146 524L146 511L134 511L134 499L146 499L146 486L159 486L159 474L171 474L171 461L184 461L184 449L196 449L196 461L209 461L209 449L221 449L221 461L234 461L234 449L246 449L246 461L259 461L259 449L271 449L271 436L259 436L259 424L271 424L271 411L259 411L259 399L246 399L246 386L234 386L234 374L246 374L246 361L259 361L259 349L271 349L271 361L284 361L284 349L271 349L271 336L259 336L259 324L246 324L246 311L234 311L234 299L246 299L246 286L234 286L234 274L246 274L246 261L259 261L259 249L271 249L271 236L284 236L284 249L296 249L296 236L309 236L309 224L296 224L296 211L284 211L284 199L296 199L296 186L309 186L309 174L321 174L321 161L334 161L334 149L346 149L346 161L359 161L359 149L346 149L346 136L359 136L359 124L371 124L371 111L384 111L384 124L396 124L396 111L409 111L409 124L421 124L421 136L434 136L434 149L446 149L446 161L459 161L459 174L471 174L471 186L484 186L484 199L496 199L496 211L484 211L484 224L471 224L471 236L484 236L484 224L496 224L496 236L509 236L509 249L521 249L521 236L534 236L534 249L546 249L546 261L559 261L559 274L546 274L546 286L559 286L559 299L546 299L546 311L534 311L534 324L546 324L546 336L534 336L534 349L521 349L521 361L534 361L534 374L546 374L546 386L559 386L559 399L546 399L546 411L534 411L534 424L521 424L521 436L534 436L534 449L521 449L521 461L534 461L534 449L546 449L546 461L559 461L559 449L571 449L571 461L584 461L584 449L596 449L596 461L609 461L609 474L621 474L621 486L634 486L634 499L646 499L646 511L634 511L634 524L621 524L621 536L609 536L609 524L596 524L596 536L584 536L584 524L571 524L571 536L584 536L584 549L571 549L571 561L584 561L584 573L571 573L571 586L584 586L584 599L571 599L571 611L559 611L559 624L571 624L571 636L559 636L559 649L546 649L546 661L534 661L534 674L546 674L546 686L534 686L534 699L521 699L521 711L534 711L534 724L546 724L546 711L559 711L559 724L571 724L571 711L584 711L584 724L596 724L596 711L609 711L609 724L621 724L621 711L634 711L634 724L646 724L646 711L659 711L659 724L671 724L671 711L684 711L684 724L696 724L696 711L709 711L709 724L721 724L721 711L734 711L734 699L721 699L721 686L734 686L734 674L721 674L721 661L734 661L734 649L721 649L721 636L734 636L734 624L721 624L721 611L734 611L734 599L721 599L721 586L734 586L734 573L721 573L721 561L734 561L734 549L721 549L721 536L734 536L734 524L721 524L721 511L734 511L734 499L721 499L721 486L734 486L734 474L721 474L721 461L734 461L734 449L721 449L721 436L734 436L734 424L721 424L721 411L734 411L734 399L721 399L721 386L734 386L734 374L721 374L721 361L734 361L734 349L721 349L721 336L734 336L734 324L721 324L721 311L734 311L734 299L721 299L721 286L734 286L734 274L721 274L721 261L734 261L734 249L721 249L721 236L734 236L734 224L721 224L721 211L734 211L734 198L721 198L721 186L734 186L734 174L721 174L721 161L734 161L734 149L721 149L721 136L734 136L734 124L721 124L721 111L734 111L734 99L721 99L721 86L734 86L734 74L721 74L721 61L734 61L734 49L721 49L721 61L709 61L709 49L696 49L696 61L684 61L684 49L671 49L671 61L659 61L659 49L646 49L646 61L634 61L634 49L621 49L621 61L609 61L609 49L596 49L596 61L584 61L584 49L571 49L571 61L559 61L559 49L546 49L546 61L534 61L534 49L521 49L521 61L509 61L509 49L496 49L496 61L484 61L484 49L471 49L471 61L459 61L459 49L446 49L446 61L434 61L434 49L421 49L421 61L409 61L409 49L396 49L396 61L384 61L384 49L371 49L371 61L359 61L359 49L346 49L346 61L334 61L334 49L321 49L321 61L309 61L309 49L296 49L296 61L284 61L284 49L271 49L271 61L259 61L259 49L246 49L246 61L234 61L234 49L221 49L221 61L209 61L209 49L196 49L196 61L184 61L184 49L171 49L171 61L159 61L159 49L146 49L146 61L134 61L134 49L121 49L121 61L109 61L109 49L96 49L96 61L84 61L84 49L71 49z"/>
<path style="fill:#d9d9d9; stroke:none;" d="M71 61L71 74L84 74L84 86L71 86L71 99L84 99L84 111L71 111L71 124L84 124L84 136L71 136L71 149L84 149L84 161L71 161L71 174L84 174L84 186L71 186L71 199L84 199L84 211L71 211L71 224L84 224L84 236L71 236L71 249L84 249L84 261L71 261L71 274L84 274L84 286L71 286L71 299L84 299L84 311L71 311L71 324L84 324L84 336L71 336L71 349L84 349L84 361L71 361L71 374L84 374L84 386L71 386L71 399L84 399L84 411L71 411L71 424L84 424L84 436L71 436L71 449L84 449L84 461L71 461L71 474L84 474L84 486L71 486L71 499L84 499L84 511L71 511L71 524L84 524L84 536L71 536L71 549L84 549L84 561L71 561L71 574L84 574L84 586L71 586L71 599L84 599L84 611L71 611L71 624L84 624L84 636L71 636L71 649L84 649L84 661L71 661L71 674L84 674L84 686L71 686L71 699L84 699L84 711L96 711L96 699L109 699L109 711L121 711L121 699L134 699L134 711L146 711L146 699L159 699L159 711L171 711L171 699L184 699L184 711L196 711L196 699L209 699L209 711L221 711L221 699L234 699L234 711L246 711L246 699L234 699L234 686L246 686L246 674L234 674L234 661L221 661L221 649L234 649L234 636L221 636L221 624L209 624L209 611L196 611L196 599L209 599L209 586L196 586L196 574C199.145 574 204.777 575.047 207.397 572.972C210.218 570.738 209 564.18 209 561L196 561L196 549L209 549L209 536L196 536L196 549L184 549L184 536L171 536L171 549L159 549L159 536L146 536L146 524L134 524L134 511L121 511L121 499L134 499L134 486L146 486L146 474L159 474L159 461L171 461L171 449L184 449L184 436L196 436L196 449L209 449L209 436L221 436L221 449L234 449L234 436L246 436L246 449L259 449L259 436L246 436L246 424L259 424L259 411L246 411L246 399L234 399L234 386L221 386L221 374L234 374L234 361L246 361L246 349L259 349L259 336L246 336L246 324L234 324L234 311L221 311L221 299L234 299L234 286L221 286L221 274L234 274L234 261L246 261L246 249L259 249L259 236L271 236L271 224L284 224L284 236L296 236L296 224L284 224L284 211L271 211L271 199L284 199L284 186L296 186L296 174L309 174L309 161L321 161L321 149L334 149L334 136L346 136L346 124L359 124L359 111L371 111L371 99L384 99L384 111L396 111L396 99L409 99L409 111L421 111L421 124L434 124L434 136L446 136L446 149L459 149L459 161L471 161L471 174L484 174L484 186L496 186L496 199L509 199L509 211L496 211L496 224L509 224L509 236L521 236L521 224L534 224L534 236L546 236L546 249L559 249L559 261L571 261L571 274L559 274L559 286L571 286L571 299L559 299L559 311L546 311L546 324L559 324L559 336L546 336L546 349L534 349L534 361L546 361L546 374L559 374L559 386L571 386L571 399L559 399L559 411L546 411L546 424L534 424L534 436L546 436L546 449L559 449L559 436L571 436L571 449L584 449L584 436L596 436L596 449L609 449L609 461L621 461L621 474L634 474L634 486L646 486L646 499L659 499L659 511L646 511L646 524L634 524L634 536L621 536L621 549L609 549L609 536L596 536L596 549L584 549L584 561L596 561L596 573L584 573L584 586L596 586L596 599L584 599L584 611L571 611L571 624L584 624L584 636L571 636L571 649L559 649L559 661L546 661L546 674L559 674L559 686L546 686L546 699L534 699L534 711L546 711L546 699L559 699L559 711L571 711L571 699L584 699L584 711L596 711L596 699L609 699L609 711L621 711L621 699L634 699L634 711L646 711L646 699L659 699L659 711L671 711L671 699L684 699L684 711L696 711L696 699L709 699L709 711L721 711L721 699L709 699L709 686L721 686L721 674L709 674L709 661L721 661L721 649L709 649L709 636L721 636L721 624L709 624L709 611L721 611L721 599L709 599L709 586L721 586L721 573L709 573L709 561L721 561L721 549L709 549L709 536L721 536L721 524L709 524L709 511L721 511L721 499L709 499L709 486L721 486L721 474L709 474L709 461L721 461L721 449L709 449L709 436L721 436L721 424L709 424L709 411L721 411L721 399L709 399L709 386L721 386L721 374L709 374L709 361L721 361L721 349L709 349L709 336L721 336L721 324L709 324L709 311L721 311L721 299L709 299L709 286L721 286L721 274L709 274L709 261L721 261L721 249L709 249L709 236L721 236L721 224L709 224L709 211L721 211L721 198L709 198L709 186L721 186L721 174L709 174L709 161L721 161L721 149L709 149L709 136L721 136L721 124L709 124L709 111L721 111L721 99L709 99L709 86L721 86L721 74L709 74L709 61L696 61L696 74L684 74L684 61L671 61L671 74L659 74L659 61L646 61L646 74L634 74L634 61L621 61L621 74L609 74L609 61L596 61L596 74L584 74L584 61L571 61L571 74L559 74L559 61L546 61L546 74L534 74L534 61L521 61L521 74L509 74L509 61L496 61L496 74L484 74L484 61L471 61L471 74L459 74L459 61L446 61L446 74L434 74L434 61L421 61L421 74L409 74L409 61L396 61L396 74L384 74L384 61L371 61L371 74L359 74L359 61L346 61L346 74L334 74L334 61L321 61L321 74L309 74L309 61L296 61L296 74L284 74L284 61L271 61L271 74L259 74L259 61L246 61L246 74L234 74L234 61L221 61L221 74L209 74L209 61L196 61L196 74L184 74L184 61L171 61L171 74L159 74L159 61L146 61L146 74L134 74L134 61L121 61L121 74L109 74L109 61L96 61L96 74L84 74L84 61L71 61z"/>
<path style="fill:#ffffff; stroke:none;" d="M759 61L759 74L771 74L771 61L759 61M21 74L21 86L34 86L34 74L21 74M96 74L96 86L84 86L84 99L96 99L96 111L84 111L84 124L96 124L96 136L84 136L84 149L96 149L96 161L84 161L84 174L96 174L96 186L84 186L84 199L96 199L96 211L84 211L84 224L96 224L96 236L84 236L84 249L96 249L96 261L84 261L84 274L96 274L96 286L84 286L84 299L96 299L96 311L84 311L84 324L96 324L96 336L84 336L84 349L96 349L96 361L84 361L84 374L96 374L96 386L84 386L84 399L96 399L96 411L84 411L84 424L96 424L96 436L84 436L84 449L96 449L96 461L84 461L84 474L96 474L96 486L84 486L84 499L96 499L96 511L84 511L84 524L96 524L96 536L84 536L84 549L96 549L96 561L84 561L84 574L96 574L96 586L84 586L84 599L96 599L96 611L84 611L84 624L96 624L96 636L84 636L84 649L96 649L96 661L84 661L84 674L96 674L96 686L84 686L84 699L96 699L96 686L109 686L109 699L121 699L121 686L134 686L134 699L146 699L146 686L159 686L159 699L171 699L171 686L184 686L184 699L196 699L196 686L209 686L209 699L221 699L221 686L234 686L234 674L221 674L221 661L209 661L209 649L221 649L221 636L209 636L209 624L196 624L196 611L184 611L184 599L196 599L196 586L184 586L184 574L196 574L196 561L184 561L184 549L171 549L171 561L159 561L159 549L146 549L146 536L134 536L134 524L121 524L121 511L109 511L109 499L121 499L121 486L134 486L134 474L146 474L146 461L159 461L159 449L171 449L171 436L184 436L184 424L196 424L196 436L209 436L209 424L221 424L221 436L234 436L234 424L246 424L246 411L234 411L234 399L221 399L221 386L209 386L209 374L221 374L221 361L234 361L234 349L246 349L246 336L234 336L234 324L221 324L221 311L209 311L209 299L221 299L221 286L209 286L209 274L221 274L221 261L234 261L234 249L246 249L246 236L259 236L259 224L271 224L271 211L259 211L259 199L271 199L271 186L284 186L284 174L296 174L296 161L309 161L309 149L321 149L321 136L334 136L334 124L346 124L346 111L359 111L359 99L371 99L371 86L384 86L384 99L396 99L396 86L409 86L409 99L421 99L421 111L434 111L434 124L446 124L446 136L459 136L459 149L471 149L471 161L484 161L484 174L496 174L496 186L509 186L509 199L521 199L521 211L509 211L509 224L521 224L521 211L534 211L534 224L546 224L546 236L559 236L559 249L571 249L571 261L584 261L584 274L571 274L571 286L584 286L584 299L571 299L571 311L559 311L559 324L571 324L571 336L559 336L559 349L546 349L546 361L559 361L559 374L571 374L571 386L584 386L584 399L571 399L571 411L559 411L559 424L546 424L546 436L559 436L559 424L571 424L571 436L584 436L584 424L596 424L596 436L609 436L609 449L621 449L621 461L634 461L634 474L646 474L646 486L659 486L659 499L671 499L671 511L659 511L659 524L646 524L646 536L634 536L634 549L621 549L621 561L609 561L609 549L596 549L596 561L609 561L609 573L596 573L596 586L609 586L609 599L596 599L596 611L584 611L584 624L596 624L596 636L584 636L584 649L571 649L571 661L559 661L559 674L571 674L571 686L559 686L559 699L571 699L571 686L584 686L584 699L596 699L596 686L609 686L609 699L621 699L621 686L634 686L634 699L646 699L646 686L659 686L659 699L671 699L671 686L684 686L684 699L696 699L696 686L709 686L709 674L696 674L696 661L709 661L709 649L696 649L696 636L709 636L709 624L696 624L696 611L709 611L709 599L696 599L696 586L709 586L709 573L696 573L696 561L709 561L709 549L696 549L696 536L709 536L709 524L696 524L696 511L709 511L709 499L696 499L696 486L709 486L709 474L696 474L696 461L709 461L709 449L696 449L696 436L709 436L709 424L696 424L696 411L709 411L709 399L696 399L696 386L709 386L709 374L696 374L696 361L709 361L709 349L696 349L696 336L709 336L709 324L696 324L696 311L709 311L709 299L696 299L696 286L709 286L709 274L696 274L696 261L709 261L709 249L696 249L696 236L709 236L709 224L696 224L696 211L709 211L709 198L696 198L696 186L709 186L709 174L696 174L696 161L709 161L709 149L696 149L696 136L709 136L709 124L696 124L696 111L709 111L709 99L696 99L696 86L709 86L709 74L696 74L696 86L684 86L684 74L671 74L671 86L659 86L659 74L646 74L646 86L634 86L634 74L621 74L621 86L609 86L609 74L596 74L596 86L584 86L584 74L571 74L571 86L559 86L559 74L546 74L546 86L534 86L534 74L521 74L521 86L509 86L509 74L496 74L496 86L484 86L484 74L471 74L471 86L459 86L459 74L446 74L446 86L434 86L434 74L421 74L421 86L409 86L409 74L396 74L396 86L384 86L384 74L371 74L371 86L359 86L359 74L346 74L346 86L334 86L334 74L321 74L321 86L309 86L309 74L296 74L296 86L284 86L284 74L271 74L271 86L259 86L259 74L246 74L246 86L234 86L234 74L221 74L221 86L209 86L209 74L196 74L196 86L184 86L184 74L171 74L171 86L159 86L159 74L146 74L146 86L134 86L134 74L121 74L121 86L109 86L109 74L96 74z"/>
<path style="fill:#d9d9d9; stroke:none;" d="M96 86L96 99L109 99L109 111L96 111L96 124L109 124L109 136L96 136L96 149L109 149L109 161L96 161L96 174L109 174L109 186L96 186L96 199L109 199L109 211L96 211L96 224L109 224L109 236L96 236L96 249L109 249L109 261L96 261L96 274L109 274L109 286L96 286L96 299L109 299L109 311L96 311L96 324L109 324L109 336L96 336L96 349L109 349L109 361L96 361L96 374L109 374L109 386L96 386L96 399L109 399L109 411L96 411L96 424L109 424L109 436L96 436L96 449L109 449L109 461L96 461L96 474L109 474L109 486L96 486L96 499L109 499L109 486L121 486L121 474L134 474L134 461L146 461L146 449L159 449L159 436L171 436L171 424L184 424L184 411L196 411L196 424L209 424L209 411L221 411L221 424L234 424L234 411L221 411L221 399L209 399L209 386L196 386L196 374L209 374L209 361L221 361L221 349L234 349L234 336L221 336L221 324L209 324L209 311L196 311L196 299L209 299L209 286L196 286L196 274L209 274L209 261L221 261L221 249L234 249L234 236L246 236L246 224L259 224L259 211L246 211L246 199L259 199L259 186L271 186L271 174L284 174L284 161L296 161L296 149L309 149L309 136L321 136L321 124L334 124L334 111L346 111L346 99L359 99L359 86L346 86L346 99L334 99L334 86L321 86L321 99L309 99L309 86L296 86L296 99L284 99L284 86L271 86L271 99L259 99L259 86L246 86L246 99L234 99L234 86L221 86L221 99L209 99L209 86L196 86L196 99L184 99L184 86L171 86L171 99L159 99L159 86L146 86L146 99L134 99L134 86L121 86L121 99L109 99L109 86L96 86M421 86L421 99L434 99L434 111L446 111L446 124L459 124L459 136L471 136L471 149L484 149L484 161L496 161L496 174L509 174L509 186L521 186L521 199L534 199L534 211L546 211L546 224L559 224L559 236L571 236L571 249L584 249L584 261L596 261L596 274L584 274L584 286L596 286L596 299L584 299L584 311L571 311L571 324L584 324L584 336L571 336L571 349L559 349L559 361L571 361L571 374L584 374L584 386L596 386L596 399L584 399L584 411L571 411L571 424L584 424L584 411L596 411L596 424L609 424L609 436L621 436L621 449L634 449L634 461L646 461L646 474L659 474L659 486L671 486L671 499L684 499L684 511L671 511L671 524L659 524L659 536L646 536L646 549L634 549L634 561L621 561L621 573L609 573L609 586L621 586L621 599L609 599L609 611L596 611L596 624L609 624L609 636L596 636L596 649L584 649L584 661L571 661L571 674L584 674L584 686L596 686L596 674L609 674L609 686L621 686L621 674L634 674L634 686L646 686L646 674L659 674L659 686L671 686L671 674L684 674L684 686L696 686L696 674L684 674L684 661L696 661L696 649L684 649L684 636L696 636L696 624L684 624L684 611L696 611L696 599L684 599L684 586L696 586L696 573L684 573L684 561L696 561L696 549L684 549L684 536L696 536L696 524L684 524L684 511L696 511L696 499L684 499L684 486L696 486L696 474L684 474L684 461L696 461L696 449L684 449L684 436L696 436L696 424L684 424L684 411L696 411L696 399L684 399L684 386L696 386L696 374L684 374L684 361L696 361L696 349L684 349L684 336L696 336L696 324L684 324L684 311L696 311L696 299L684 299L684 286L696 286L696 274L684 274L684 261L696 261L696 249L684 249L684 236L696 236L696 224L684 224L684 211L696 211L696 198L684 198L684 186L696 186L696 174L684 174L684 161L696 161L696 149L684 149L684 136L696 136L696 124L684 124L684 111L696 111L696 99L684 99L684 86L671 86L671 99L659 99L659 86L646 86L646 99L634 99L634 86L621 86L621 99L609 99L609 86L596 86L596 99L584 99L584 86L571 86L571 99L559 99L559 86L546 86L546 99L534 99L534 86L521 86L521 99L509 99L509 86L496 86L496 99L484 99L484 86L471 86L471 99L459 99L459 86L446 86L446 99L434 99L434 86L421 86z"/>
<path style="fill:#ffffff; stroke:none;" d="M759 86L759 99L771 99L771 86L759 86M21 99L21 111L34 111L34 99L21 99M121 99L121 111L109 111L109 124L121 124L121 136L109 136L109 149L121 149L121 161L109 161L109 174L121 174L121 186L109 186L109 199L121 199L121 211L109 211L109 224L121 224L121 236L109 236L109 249L121 249L121 261L109 261L109 274L121 274L121 286L109 286L109 299L121 299L121 311L109 311L109 324L121 324L121 336L109 336L109 349L121 349L121 361L109 361L109 374L121 374L121 386L109 386L109 399L121 399L121 411L109 411L109 424L121 424L121 436L109 436L109 449L121 449L121 461L109 461L109 474L121 474L121 461L134 461L134 449L146 449L146 436L159 436L159 424L171 424L171 411L184 411L184 399L196 399L196 411L209 411L209 399L196 399L196 386L184 386L184 374L196 374L196 361L209 361L209 349L221 349L221 336L209 336L209 324L196 324L196 311L184 311L184 299L196 299L196 286L184 286L184 274L196 274L196 261L209 261L209 249L221 249L221 236L234 236L234 224L246 224L246 211L234 211L234 199L246 199L246 186L259 186L259 174L271 174L271 161L284 161L284 149L296 149L296 136L309 136L309 124L321 124L321 111L334 111L334 99L321 99L321 111L309 111L309 99L296 99L296 111L284 111L284 99L271 99L271 111L259 111L259 99L246 99L246 111L234 111L234 99L221 99L221 111L209 111L209 99L196 99L196 111L184 111L184 99L171 99L171 111L159 111L159 99L146 99L146 111L134 111L134 99L121 99M446 99L446 111L459 111L459 124L471 124L471 136L484 136L484 149L496 149L496 161L509 161L509 174L521 174L521 186L534 186L534 199L546 199L546 211L559 211L559 224L571 224L571 236L584 236L584 249L596 249L596 261L609 261L609 274L596 274L596 286L609 286L609 299L596 299L596 311L584 311L584 324L596 324L596 336L584 336L584 349L571 349L571 361L584 361L584 374L596 374L596 386L609 386L609 399L596 399L596 411L609 411L609 424L621 424L621 436L634 436L634 449L646 449L646 461L659 461L659 474L671 474L671 486L684 486L684 474L671 474L671 461L684 461L684 449L671 449L671 436L684 436L684 424L671 424L671 411L684 411L684 399L671 399L671 386L684 386L684 374L671 374L671 361L684 361L684 349L671 349L671 336L684 336L684 324L671 324L671 311L684 311L684 299L671 299L671 286L684 286L684 274L671 274L671 261L684 261L684 249L671 249L671 236L684 236L684 224L671 224L671 211L684 211L684 198L671 198L671 186L684 186L684 174L671 174L671 161L684 161L684 149L671 149L671 136L684 136L684 124L671 124L671 111L684 111L684 99L671 99L671 111L659 111L659 99L646 99L646 111L634 111L634 99L621 99L621 111L609 111L609 99L596 99L596 111L584 111L584 99L571 99L571 111L559 111L559 99L546 99L546 111L534 111L534 99L521 99L521 111L509 111L509 99L496 99L496 111L484 111L484 99L471 99L471 111L459 111L459 99L446 99z"/>
<path style="fill:#d9d9d9; stroke:none;" d="M121 111L121 124L134 124L134 136L121 136L121 149L134 149L134 161L121 161L121 174L134 174L134 186L121 186L121 199L134 199L134 211L121 211L121 224L134 224L134 236L121 236L121 249L134 249L134 261L121 261L121 274L134 274L134 286L121 286L121 299L134 299L134 311L121 311L121 324L134 324L134 336L121 336L121 349L134 349L134 361L121 361L121 374L134 374L134 386L121 386L121 399L134 399L134 411L121 411L121 424L134 424L134 436L121 436L121 449L134 449L134 436L146 436L146 424L159 424L159 411L171 411L171 399L184 399L184 386L171 386L171 374L184 374L184 361L196 361L196 349L209 349L209 336L196 336L196 324L184 324L184 311L171 311L171 299L184 299L184 286L171 286L171 274L184 274L184 261L196 261L196 249L209 249L209 236L221 236L221 224L234 224L234 211L221 211L221 199L234 199L234 186L246 186L246 174L259 174L259 161L271 161L271 149L284 149L284 136L296 136L296 124L309 124L309 111L296 111L296 124L284 124L284 111L271 111L271 124L259 124L259 111L246 111L246 124L234 124L234 111L221 111L221 124L209 124L209 111L196 111L196 124L184 124L184 111L171 111L171 124L159 124L159 111L146 111L146 124L134 124L134 111L121 111M471 111L471 124L484 124L484 136L496 136L496 149L509 149L509 161L521 161L521 174L534 174L534 186L546 186L546 199L559 199L559 211L571 211L571 224L584 224L584 236L596 236L596 249L609 249L609 261L621 261L621 274L609 274L609 286L621 286L621 299L609 299L609 311L596 311L596 324L609 324L609 336L596 336L596 349L584 349L584 361L596 361L596 374L609 374L609 386L621 386L621 399L609 399L609 411L621 411L621 424L634 424L634 436L646 436L646 449L659 449L659 461L671 461L671 449L659 449L659 436L671 436L671 424L659 424L659 411L671 411L671 399L659 399L659 386L671 386L671 374L659 374L659 361L671 361L671 349L659 349L659 336L671 336L671 324L659 324L659 311L671 311L671 299L659 299L659 286L671 286L671 274L659 274L659 261L671 261L671 249L659 249L659 236L671 236L671 224L659 224L659 211L671 211L671 198L659 198L659 186L671 186L671 174L659 174L659 161L671 161L671 149L659 149L659 136L671 136L671 124L659 124L659 111L646 111L646 124L634 124L634 111L621 111L621 124L609 124L609 111L596 111L596 124L584 124L584 111L571 111L571 124L559 124L559 111L546 111L546 124L534 124L534 111L521 111L521 124L509 124L509 111L496 111L496 124L484 124L484 111L471 111z"/>
<path style="fill:#ffffff; stroke:none;" d="M759 111L759 124L771 124L771 111L759 111M21 124L21 136L34 136L34 124L21 124M146 124L146 136L134 136L134 149L146 149L146 161L134 161L134 174L146 174L146 186L134 186L134 199L146 199L146 211L134 211L134 224L146 224L146 236L134 236L134 249L146 249L146 261L134 261L134 274L146 274L146 286L134 286L134 299L146 299L146 311L134 311L134 324L146 324L146 336L134 336L134 349L146 349L146 361L134 361L134 374L146 374L146 386L134 386L134 399L146 399L146 411L134 411L134 424L146 424L146 411L159 411L159 399L171 399L171 386L159 386L159 374L171 374L171 361L184 361L184 349L196 349L196 336L184 336L184 324L171 324L171 311L159 311L159 299L171 299L171 286L159 286L159 274L171 274L171 261L184 261L184 249L196 249L196 236L209 236L209 224L221 224L221 211L209 211L209 199L221 199L221 186L234 186L234 174L246 174L246 161L259 161L259 149L271 149L271 136L284 136L284 124L271 124L271 136L259 136L259 124L246 124L246 136L234 136L234 124L221 124L221 136L209 136L209 124L196 124L196 136L184 136L184 124L171 124L171 136L159 136L159 124L146 124M371 124L371 136L359 136L359 149L371 149L371 136L384 136L384 124L371 124M396 124L396 136L409 136L409 149L421 149L421 161L434 161L434 149L421 149L421 136L409 136L409 124L396 124M496 124L496 136L509 136L509 149L521 149L521 161L534 161L534 174L546 174L546 186L559 186L559 199L571 199L571 211L584 211L584 224L596 224L596 236L609 236L609 249L621 249L621 261L634 261L634 274L621 274L621 286L634 286L634 299L621 299L621 311L609 311L609 324L621 324L621 336L609 336L609 349L596 349L596 361L609 361L609 374L621 374L621 386L634 386L634 399L621 399L621 411L634 411L634 424L646 424L646 436L659 436L659 424L646 424L646 411L659 411L659 399L646 399L646 386L659 386L659 374L646 374L646 361L659 361L659 349L646 349L646 336L659 336L659 324L646 324L646 311L659 311L659 299L646 299L646 286L659 286L659 274L646 274L646 261L659 261L659 249L646 249L646 236L659 236L659 224L646 224L646 211L659 211L659 198L646 198L646 186L659 186L659 174L646 174L646 161L659 161L659 149L646 149L646 136L659 136L659 124L646 124L646 136L634 136L634 124L621 124L621 136L609 136L609 124L596 124L596 136L584 136L584 124L571 124L571 136L559 136L559 124L546 124L546 136L534 136L534 124L521 124L521 136L509 136L509 124L496 124z"/>
<path style="fill:#d9d9d9; stroke:none;" d="M146 136L146 149L159 149L159 161L146 161L146 174L159 174L159 186L146 186L146 199L159 199L159 211L146 211L146 224L159 224L159 236L146 236L146 249L159 249L159 261L146 261L146 274L159 274L159 261L171 261L171 249L184 249L184 236L196 236L196 224L209 224L209 211L196 211L196 199L209 199L209 186L221 186L221 174L234 174L234 161L246 161L246 149L259 149L259 136L246 136L246 149L234 149L234 136L221 136L221 149L209 149L209 136L196 136L196 149L184 149L184 136L171 136L171 149L159 149L159 136L146 136z"/>
<path style="fill:#000000; stroke:none;" d="M371 136L371 174L334 174L334 186L321 186L321 199L309 199L309 224L371 224L371 249L296 249L296 261L259 261L259 311L271 311L271 336L296 336L296 374L259 374L259 399L271 399L271 411L296 411L296 424L284 424L284 461L271 461L271 474L184 474L184 486L171 486L171 499L159 499L159 511L246 511L246 536L234 536L234 611L259 611L259 599L246 599L246 549L259 549L259 499L284 499L284 461L296 461L296 436L309 436L309 399L284 399L284 386L309 386L309 336L296 336L296 324L284 324L284 311L271 311L271 274L296 274L296 261L384 261L384 211L334 211L334 199L346 199L346 186L384 186L384 149L396 149L396 161L409 161L409 186L446 186L446 199L459 199L459 211L421 211L421 224L409 224L409 261L496 261L496 274L521 274L521 299L509 299L509 324L496 324L496 336L484 336L484 386L509 386L509 411L521 411L521 399L534 399L534 374L496 374L496 349L509 349L509 336L521 336L521 311L534 311L534 261L496 261L496 249L421 249L421 224L471 224L471 199L459 199L459 186L446 186L446 174L421 174L421 149L396 149L396 136L371 136z"/>
<path style="fill:#9c5a3c; stroke:none;" d="M396 136L396 149L409 149L409 136L396 136z"/>
<path style="fill:#d9d9d9; stroke:none;" d="M521 136L521 149L534 149L534 161L546 161L546 174L559 174L559 186L571 186L571 199C575.423 199 579.739 199.259 584 198L584 211L596 211L596 224L609 224L609 236L621 236L621 249L634 249L634 261L646 261L646 249L634 249L634 236L646 236L646 224L634 224L634 211L646 211L646 198L634 198L634 186L646 186L646 174L634 174L634 161L646 161L646 149L634 149L634 136L621 136L621 149L609 149L609 136L596 136L596 149L584 149L584 136L571 136L571 149L559 149L559 136L546 136L546 149L534 149L534 136L521 136z"/>
<path style="fill:#ffffff; stroke:none;" d="M759 136L759 149L771 149L771 136L759 136M21 149L21 161L34 161L34 149L21 149M171 149L171 161L159 161L159 174L171 174L171 186L159 186L159 199L171 199L171 211L159 211L159 224L171 224L171 236L159 236L159 249L171 249L171 236L184 236L184 224L196 224L196 211L184 211L184 199L196 199L196 186L209 186L209 174L221 174L221 161L234 161L234 149L221 149L221 161L209 161L209 149L196 149L196 161L184 161L184 149L171 149M384 149L384 186L346 186L346 199L334 199L334 211L384 211L384 261L296 261L296 274L271 274L271 311L284 311L284 324L296 324L296 336L309 336L309 386L284 386L284 399L309 399L309 436L296 436L296 461L284 461L284 499L259 499L259 549L246 549L246 599L259 599L259 624L271 624L271 649L284 649L284 661L509 661L509 649L521 649L521 624L534 624L534 599L546 599L546 549L534 549L534 499L509 499L509 474L496 474L496 436L484 436L484 399L509 399L509 386L484 386L484 336L496 336L496 324L509 324L509 299L521 299L521 274L496 274L496 261L409 261L409 224L421 224L421 211L459 211L459 199L446 199L446 186L409 186L409 161L396 161L396 149L384 149M546 149L546 161L559 161L559 174L571 174L571 186L584 186L584 198L596 198L596 211L609 211L609 224L621 224L621 236L634 236L634 224L621 224L621 211L634 211L634 198L621 198L621 186L634 186L634 174L621 174L621 161L634 161L634 149L621 149L621 161L609 161L609 149L596 149L596 161L584 161L584 149L571 149L571 161L559 161L559 149L546 149z"/>
<path style="fill:#d9d9d9; stroke:none;" d="M171 161L171 174L184 174L184 186L171 186L171 199L184 199L184 186L196 186L196 174L209 174L209 161L196 161L196 174L184 174L184 161L171 161z"/>
<path style="fill:#ffffff; stroke:none;" d="M334 161L334 174L346 174L346 161L334 161M359 161L359 174L371 174L371 161L359 161M434 161L434 174L446 174L446 161L434 161z"/>
<path style="fill:#d9d9d9; stroke:none;" d="M571 161L571 174L584 174L584 186L596 186L596 198L609 198L609 211L621 211L621 198L609 198L609 186L621 186L621 174L609 174L609 161L596 161L596 174L584 174L584 161L571 161z"/>
<path style="fill:#ffffff; stroke:none;" d="M759 161L759 174L771 174L771 161L759 161M21 174L21 186L34 186L34 174L21 174M321 174L321 186L334 186L334 174L321 174z"/>
<path style="fill:#9c5a3c; stroke:none;" d="M446 174L446 186L459 186L459 174L446 174z"/>
<path style="fill:#ffffff; stroke:none;" d="M596 174L596 186L609 186L609 174L596 174z"/>
<path style="fill:#9c5a3c; stroke:none;" d="M309 186L309 199L321 199L321 186L309 186M459 186L459 199L471 199L471 186L459 186z"/>
<path style="fill:#ffffff; stroke:none;" d="M759 186L759 198L771 198L771 186L759 186M21 199L21 211L34 211L34 199L21 199M296 199L296 211L309 211L309 199L296 199M471 199L471 211L484 211L484 199L471 199z"/>
<path style="fill:#d9d9d9; stroke:none;" d="M171 211L171 224L184 224L184 211L171 211z"/>
<path style="fill:#ffffff; stroke:none;" d="M759 211L759 224L771 224L771 211L759 211M21 224L21 236L34 236L34 224L21 224M321 224L321 236L334 236L334 224L321 224M346 224L346 236L359 236L359 224L346 224z"/>
<path style="fill:#9c5a3c; stroke:none;" d="M421 224L421 236L434 236L434 224L421 224z"/>
<path style="fill:#ffffff; stroke:none;" d="M446 224L446 236L459 236L459 224L446 224M309 236L309 249L321 249L321 236L309 236M334 236L334 249L346 249L346 236L334 236M359 236L359 249L371 249L371 236L359 236M434 236L434 249L446 249L446 236L434 236M459 236L459 249L471 249L471 236L459 236M484 236L484 249L496 249L496 236L484 236M759 236L759 249L771 249L771 236L759 236M21 249L21 261L34 261L34 249L21 249M271 249L271 261L284 261L284 249L271 249M496 249L496 261L509 261L509 249L496 249M521 249L521 261L534 261L534 249L521 249M534 261L534 274L546 274L546 261L534 261M759 261L759 274L771 274L771 261L759 261M21 274L21 286L34 286L34 274L21 274M246 274L246 286L259 286L259 274L246 274z"/>
<path style="fill:#d9d9d9; stroke:none;" d="M634 274L634 286L646 286L646 274L634 274M146 286L146 299L159 299L159 286L146 286z"/>
<path style="fill:#000000; stroke:none;" d="M309 286L309 299L346 299L346 286L309 286z"/>
<path style="fill:#9c5a3c; stroke:none;" d="M346 286L346 299L359 299L359 286L346 286M446 286L446 299L459 299L459 286L446 286z"/>
<path style="fill:#000000; stroke:none;" d="M459 286L459 299L484 299L484 286L459 286z"/>
<path style="fill:#ffffff; stroke:none;" d="M534 286L534 299L546 299L546 286L534 286M759 286L759 299L771 299L771 286L759 286M21 299L21 311L34 311L34 299L21 299M246 299L246 311L259 311L259 299L246 299z"/>
<path style="fill:#d9d9d9; stroke:none;" d="M634 299L634 311L621 311L621 324L634 324L634 336L621 336L621 349L609 349L609 361L621 361L621 374L634 374L634 386L646 386L646 374L634 374L634 361L646 361L646 349L634 349L634 336L646 336L646 324L634 324L634 311L646 311L646 299L634 299M146 311L146 324L159 324L159 336L146 336L146 349L159 349L159 361L146 361L146 374L159 374L159 361L171 361L171 349L184 349L184 336L171 336L171 324L159 324L159 311L146 311z"/>
<path style="fill:#ffffff; stroke:none;" d="M259 311L259 324L271 324L271 311L259 311z"/>
<path style="fill:#000000; stroke:none;" d="M334 311L334 324L321 324L321 349L384 349L384 324L371 324L371 311L334 311M421 311L421 324L409 324L409 349L471 349L471 324L459 324L459 311L421 311z"/>
<path style="fill:#ffffff; stroke:none;" d="M759 311L759 324L771 324L771 311L759 311M21 324L21 336L34 336L34 324L21 324z"/>
<path style="fill:#22b14c; stroke:none;" d="M334 324L334 336L346 336L346 324L334 324z"/>
<path style="fill:#fff200; stroke:none;" d="M346 324L346 336L371 336L371 324L346 324M421 324L421 336L446 336L446 324L421 324z"/>
<path style="fill:#22b14c; stroke:none;" d="M446 324L446 336L459 336L459 324L446 324z"/>
<path style="fill:#ffffff; stroke:none;" d="M521 324L521 336L534 336L534 324L521 324M159 336L159 349L171 349L171 336L159 336z"/>
<path style="fill:#9c5a3c; stroke:none;" d="M284 336L284 349L296 349L296 336L284 336z"/>
<path style="fill:#ffffff; stroke:none;" d="M509 336L509 349L521 349L521 336L509 336M759 336L759 349L771 349L771 336L759 336M21 349L21 361L34 361L34 349L21 349M496 349L496 361L509 361L509 349L496 349M621 349L621 361L634 361L634 349L621 349M259 361L259 374L271 374L271 361L259 361M284 361L284 374L296 374L296 361L284 361z"/>
<path style="fill:#000000; stroke:none;" d="M359 361L359 374L346 374L346 386L359 386L359 374L421 374L421 386L434 386L434 399L459 399L459 386L446 386L446 374L434 374L434 361L359 361z"/>
<path style="fill:#ffffff; stroke:none;" d="M509 361L509 374L521 374L521 361L509 361M759 361L759 374L771 374L771 361L759 361M21 374L21 386L34 386L34 374L21 374M246 374L246 386L259 386L259 374L246 374z"/>
<path style="fill:#d9d9d9; stroke:none;" d="M146 386L146 399L159 399L159 386L146 386z"/>
<path style="fill:#ffffff; stroke:none;" d="M534 386L534 399L546 399L546 386L534 386M759 386L759 399L771 399L771 386L759 386M21 399L21 411L34 411L34 399L21 399z"/>
<path style="fill:#000000; stroke:none;" d="M484 399L484 436L496 436L496 474L509 474L509 499L534 499L534 549L546 549L546 611L534 611L534 624L521 624L521 649L509 649L509 661L284 661L284 649L271 649L271 624L246 624L246 636L259 636L259 661L271 661L271 699L296 699L296 674L496 674L496 699L521 699L521 661L534 661L534 636L546 636L546 611L559 611L559 536L546 536L546 511L621 511L621 499L609 499L609 474L521 474L521 461L509 461L509 424L496 424L496 399L484 399z"/>
<path style="fill:#9c5a3c; stroke:none;" d="M496 399L496 411L509 411L509 399L496 399z"/>
<path style="fill:#ffffff; stroke:none;" d="M521 399L521 411L534 411L534 399L521 399z"/>
<path style="fill:#d9d9d9; stroke:none;" d="M634 399L634 411L646 411L646 399L634 399z"/>
<path style="fill:#ffffff; stroke:none;" d="M284 411L284 424L296 424L296 411L284 411M509 411L509 424L521 424L521 411L509 411M759 411L759 424L771 424L771 411L759 411M21 424L21 436L34 436L34 424L21 424M271 424L271 436L284 436L284 424L271 424z"/>
<path style="fill:#000000; stroke:none;" d="M359 424L359 436L346 436L346 624L371 624L371 524L434 524L434 499L446 499L446 436L421 436L421 424L359 424z"/>
<path style="fill:#ffffff; stroke:none;" d="M509 436L509 449L521 449L521 436L509 436M759 436L759 449L771 449L771 436L759 436M21 449L21 461L34 461L34 449L21 449M271 449L271 461L284 461L284 449L271 449M371 449L371 499L421 499L421 449L371 449M184 461L184 474L196 474L196 461L184 461M209 461L209 474L221 474L221 461L209 461M234 461L234 474L246 474L246 461L234 461M259 461L259 474L271 474L271 461L259 461M534 461L534 474L546 474L546 461L534 461M559 461L559 474L571 474L571 461L559 461M584 461L584 474L596 474L596 461L584 461M759 461L759 474L771 474L771 461L759 461M21 474L21 486L34 486L34 474L21 474M171 474L171 486L184 486L184 474L171 474M159 486L159 499L171 499L171 486L159 486z"/>
<path style="fill:#ff7e00; stroke:none;" d="M196 486L196 499L209 499L209 486L196 486z"/>
<path style="fill:#ffc20e; stroke:none;" d="M209 486L209 499L246 499L246 486L209 486M546 486L546 499L584 499L584 486L546 486z"/>
<path style="fill:#ff7e00; stroke:none;" d="M584 486L584 499L596 499L596 486L584 486z"/>
<path style="fill:#9c5a3c; stroke:none;" d="M609 486L609 499L621 499L621 486L609 486z"/>
<path style="fill:#ffffff; stroke:none;" d="M759 486L759 499L771 499L771 486L759 486M21 499L21 511L34 511L34 499L21 499M146 499L146 511L159 511L159 499L146 499M621 499L621 511L634 511L634 499L621 499z"/>
<path style="fill:#d9d9d9; stroke:none;" d="M96 511L96 524L109 524L109 536L96 536L96 549L109 549L109 561L96 561L96 574L109 574L109 586L96 586L96 599L109 599L109 611L96 611L96 624L109 624L109 636L96 636L96 649L109 649L109 661L96 661L96 674L109 674L109 686L121 686L121 674L134 674L134 686L146 686L146 674L159 674L159 686L171 686L171 674L184 674L184 686L196 686L196 674L209 674L209 686L221 686L221 674L209 674L209 661L196 661L196 649L209 649L209 636L196 636L196 624L184 624L184 611L171 611L171 599L184 599L184 586L171 586L171 574L184 574L184 561L171 561L171 574L159 574L159 561L146 561L146 549L134 549L134 536L121 536L121 524L109 524L109 511L96 511z"/>
<path style="fill:#ffffff; stroke:none;" d="M159 511L159 524L171 524L171 511L159 511M184 511L184 524L196 524L196 511L184 511M209 511L209 524L221 524L221 511L209 511M234 511L234 524L246 524L246 511L234 511M559 511L559 524L571 524L571 511L559 511M584 511L584 524L596 524L596 511L584 511M609 511L609 524L621 524L621 511L609 511M759 511L759 524L771 524L771 511L759 511M21 524L21 536L34 536L34 524L21 524z"/>
<path style="fill:#b4b4b4; stroke:none;" d="M496 524L496 599L484 599L484 611L471 611L471 624L446 624L446 636L434 636L434 649L484 649L484 636L496 636L496 624L509 624L509 599L521 599L521 536L509 536L509 524L496 524z"/>
<path style="fill:#ffffff; stroke:none;" d="M546 524L546 536L559 536L559 524L546 524M671 524L671 536L659 536L659 549L646 549L646 561L634 561L634 573L621 573L621 586L634 586L634 599L621 599L621 611L609 611L609 624L621 624L621 636L609 636L609 649L596 649L596 661L584 661L584 674L596 674L596 661L609 661L609 674L621 674L621 661L634 661L634 674L646 674L646 661L659 661L659 674L671 674L671 661L684 661L684 649L671 649L671 636L684 636L684 624L671 624L671 611L684 611L684 599L671 599L671 586L684 586L684 573L671 573L671 561L684 561L684 549L671 549L671 536L684 536L684 524L671 524M109 536L109 549L121 549L121 561L109 561L109 574L121 574L121 586L109 586L109 599L121 599L121 611L109 611L109 624L121 624L121 636L109 636L109 649L121 649L121 661L109 661L109 674L121 674L121 661L134 661L134 674L146 674L146 661L159 661L159 674L171 674L171 661L184 661L184 674L196 674L196 661L184 661L184 649L196 649L196 636L184 636L184 624L171 624L171 611L159 611L159 599L171 599L171 586L159 586L159 574L146 574L146 561L134 561L134 549L121 549L121 536L109 536M559 536L559 549L571 549L571 536L559 536M759 536L759 549L771 549L771 536L759 536M21 549L21 561L34 561L34 549L21 549M221 549L221 561L234 561L234 549L221 549z"/>
<path style="fill:#d9d9d9; stroke:none;" d="M659 549L659 561L646 561L646 573L634 573L634 586L646 586L646 599L634 599L634 611L621 611L621 624L634 624L634 636L621 636L621 649L609 649L609 661L621 661L621 649L634 649L634 661L646 661L646 649L659 649L659 661L671 661L671 649L659 649L659 636L671 636L671 624L659 624L659 611L671 611L671 599L659 599L659 586L671 586L671 573L659 573L659 561L671 561L671 549L659 549M121 561L121 574L134 574L134 586L121 586L121 599L134 599L134 611L121 611L121 624L134 624L134 636L121 636L121 649L134 649L134 661L146 661L146 649L159 649L159 661L171 661L171 649L184 649L184 636L171 636L171 624L159 624L159 611L146 611L146 599L159 599L159 586L146 586L146 574L134 574L134 561L121 561z"/>
<path style="fill:#ffffff; stroke:none;" d="M559 561L559 573L571 573L571 561L559 561M759 561L759 573L771 573L771 561L759 561M221 573L221 586L234 586L234 573L221 573M646 573L646 586L659 586L659 573L646 573M21 574L21 586L34 586L34 574L21 574M134 586L134 599L146 599L146 586L134 586M559 586L559 599L571 599L571 586L559 586M759 586L759 599L771 599L771 586L759 586M21 599L21 611L34 611L34 599L21 599M221 599L221 611L234 611L234 599L221 599z"/>
<path style="fill:#9c5a3c; stroke:none;" d="M534 599L534 611L546 611L546 599L534 599z"/>
<path style="fill:#ffffff; stroke:none;" d="M646 599L646 611L634 611L634 624L646 624L646 636L634 636L634 649L646 649L646 636L659 636L659 624L646 624L646 611L659 611L659 599L646 599M134 611L134 624L146 624L146 636L134 636L134 649L146 649L146 636L159 636L159 649L171 649L171 636L159 636L159 624L146 624L146 611L134 611M234 611L234 624L246 624L246 611L234 611z"/>
<path style="fill:#9c5a3c; stroke:none;" d="M246 611L246 624L259 624L259 611L246 611z"/>
<path style="fill:#ffffff; stroke:none;" d="M759 611L759 624L771 624L771 611L759 611M21 624L21 636L34 636L34 624L21 624M546 624L546 636L559 636L559 624L546 624M534 636L534 649L546 649L546 636L534 636M759 636L759 649L771 649L771 636L759 636M21 649L21 661L34 661L34 649L21 649M246 649L246 661L259 661L259 649L246 649M259 661L259 674L271 674L271 661L259 661M759 661L759 674L771 674L771 661L759 661M21 674L21 686L34 686L34 674L21 674M296 674L296 686L309 686L309 674L296 674M321 674L321 686L334 686L334 674L321 674M346 674L346 686L359 686L359 674L346 674M371 674L371 686L384 686L384 674L371 674M396 674L396 686L409 686L409 674L396 674M421 674L421 686L434 686L434 674L421 674M446 674L446 686L459 686L459 674L446 674M471 674L471 686L484 686L484 674L471 674M521 674L521 686L534 686L534 674L521 674M259 686L259 699L271 699L271 686L259 686M309 686L309 699L321 699L321 711L309 711L309 724L321 724L321 711L334 711L334 724L346 724L346 711L359 711L359 724L371 724L371 711L384 711L384 724L396 724L396 711L409 711L409 724L421 724L421 711L434 711L434 724L446 724L446 711L459 711L459 724L471 724L471 711L484 711L484 699L471 699L471 686L459 686L459 699L446 699L446 686L434 686L434 699L421 699L421 686L409 686L409 699L396 699L396 686L384 686L384 699L371 699L371 686L359 686L359 699L346 699L346 686L334 686L334 699L321 699L321 686L309 686M484 686L484 699L496 699L496 686L484 686M759 686L759 699L771 699L771 686L759 686M21 699L21 711L34 711L34 699L21 699M271 699L271 711L284 711L284 699L271 699z"/>
<path style="fill:#9c5a3c; stroke:none;" d="M284 699L284 724L296 724L296 699L284 699z"/>
<path style="fill:#ffffff; stroke:none;" d="M296 699L296 711L309 711L309 699L296 699z"/>
<path style="fill:#d9d9d9; stroke:none;" d="M334 699L334 711L346 711L346 699L334 699M359 699L359 711L371 711L371 699L359 699M384 699L384 711L396 711L396 699L384 699M409 699L409 711L421 711L421 699L409 699M434 699L434 711L446 711L446 699L434 699M459 699L459 711L471 711L471 699L459 699z"/>
<path style="fill:#9c5a3c; stroke:none;" d="M496 699L496 724L509 724L509 699L496 699z"/>
<path style="fill:#ffffff; stroke:none;" d="M484 711L484 724L496 724L496 711L484 711M509 711L509 724L521 724L521 711L509 711M759 711L759 724L771 724L771 711L759 711M21 724L21 736L34 736L34 724L21 724M759 736L759 749L771 749L771 736L759 736M21 749L21 761L34 761L34 749L21 749M46 749L46 761L59 761L59 749L46 749M71 749L71 761L84 761L84 749L71 749M96 749L96 761L109 761L109 749L96 749M121 749L121 761L134 761L134 749L121 749M146 749L146 761L159 761L159 749L146 749M171 749L171 761L184 761L184 749L171 749M196 749L196 761L209 761L209 749L196 749M221 749L221 761L234 761L234 749L221 749M246 749L246 761L259 761L259 749L246 749M271 749L271 761L284 761L284 749L271 749M296 749L296 761L309 761L309 749L296 749M321 749L321 761L334 761L334 749L321 749M346 749L346 761L359 761L359 749L346 749M371 749L371 761L384 761L384 749L371 749M396 749L396 761L409 761L409 749L396 749M421 749L421 761L434 761L434 749L421 749M446 749L446 761L459 761L459 749L446 749M471 749L471 761L484 761L484 749L471 749M496 749L496 761L509 761L509 749L496 749M521 749L521 761L534 761L534 749L521 749M546 749L546 761L559 761L559 749L546 749M571 749L571 761L584 761L584 749L571 749M596 749L596 761L609 761L609 749L596 749M621 749L621 761L634 761L634 749L621 749M646 749L646 761L659 761L659 749L646 749M671 749L671 761L684 761L684 749L671 749M696 749L696 761L709 761L709 749L696 749M721 749L721 761L734 761L734 749L721 749M746 749L746 761L759 761L759 749L746 749z"/>
<path style="fill:#191919; stroke:none;" d="M0 775C6.19393 777.599 15.3141 776 22 776L69 776L232 776L797 776C790.806 773.401 781.686 775 775 775L728 775L565 775L0 775z"/>
<path style="fill:#333333; stroke:none;" d="M0 776C6.19393 778.599 15.3141 777 22 777L69 777L232 777L797 777C790.806 774.401 781.686 776 775 776L728 776L565 776L0 776z"/>
</svg>
